<svg xmlns="http://www.w3.org/2000/svg" enable-background="new 0 0 47.5 47.5" viewBox="0 0 47.5 47.5" id="wine"><defs><clipPath id="a"><path d="M0 38h38V0H0v38Z"></path></clipPath></defs><g clip-path="url(#a)" transform="matrix(1.25 0 0 -1.25 0 47.5)"><path fill="#8899a6" d="M0 0s10.042 2.213 10.042 16.005c0 1.481-1.167 2.25-3.416 2.25H-9.871c-1.125 0-3.329.262-3.329-2.125C-13.2 2.422-3 0-3 0v-10.123s-4.584-2.34-5.498-2.883c-.984-.562-.33-1.462.063-1.617.657-.258 2.254-1.102 6.781-1.102 4.64 0 6.202.914 6.764 1.102.217.072 1.347.932.011 1.723C2.743-11.492 0-10.123 0-10.123V0Z" transform="translate(20 16.745)"></path><path fill="#ccd6dd" d="M0 0c0-1.621-3.547-2.935-11.623-2.935-8.076 0-11.623 1.314-11.623 2.935 0 1.622 3.547 2.935 11.623 2.935C-3.547 2.935 0 1.622 0 0" transform="translate(30 33.558)"></path><path fill="#ccd6dd" d="M0 0c2.042-9.5 5.458-12.792 8.699-13.835 1.11-.358 2.026-.428 2.801-.123 3.5 1.375 7.542 5.666 8.167 13.583C19.828 1.662 0 0 0 0" transform="translate(8.459 33.416)"></path><path fill="#a0041e" d="M0 0c0-3.5 3.333-8.5 8.333-8.5C13.334-8.5 17-3.042 17-.042 11-.042 0 0 0 0" transform="translate(10 27.5)"></path><path fill="#dd2e44" d="M0 0c0-.829-3.806-1.5-8.5-1.5S-17-.829-17 0s3.806 1.5 8.5 1.5S0 .829 0 0" transform="translate(27 27.5)"></path><path fill="#fff" d="M0 0c-5.03 0-8.783 1.11-9.801 1.587a1 1 0 0 0 .849 1.811C-7.713 2.816.502.504 9.644 3.525a.999.999 0 1 0 .627-1.899C6.594.411 3.061 0 0 0" transform="translate(18.168 30.34)"></path></g></svg>